<?xml version="1.0" encoding="UTF-8"?><svg id="Capa_2" xmlns="http://www.w3.org/2000/svg" viewBox="0 0 498.35 94.28"><defs><style>.cls-1{fill:#fff;}</style></defs><g id="Capa_1-2"><path class="cls-1" d="M50.28,47.14c0,4.19-6.29,4.19-6.29,0s6.29-4.19,6.29,0"/><path class="cls-1" d="M88,61.93c0,3.98-3.23,7.21-7.21,7.21h-11.64v-31.43c0-6.93-5.64-12.57-12.57-12.57H25.14V13.5c0-3.98,3.23-7.21,7.21-7.21h48.43c3.98,0,7.21,3.23,7.21,7.21V61.93Zm-31.43,26.07h-13.04l.31-3.44c.09-1.04,.14-1.96,.14-2.84,0-17.33-14.09-31.43-31.43-31.43-.9,0-1.82,.05-2.84,.14l-3.44,.33v-13.04c0-3.47,2.81-6.29,6.29-6.29H56.55c3.47,0,6.29,2.81,6.29,6.29v44c0,3.47-2.81,6.29-6.29,6.29h.02Zm-19.13-2.69l-.39,2.69H12.58c-3.47,0-6.29-2.81-6.29-6.29v-24.47l2.67-.41c1.2-.17,2.41-.27,3.62-.27,13.86,0,25.14,11.28,25.14,25.14,0,1.2-.09,2.41-.27,3.6h-.01ZM80.78,0H32.35c-7.45,0-13.5,6.05-13.5,13.5v11.64h-6.29c-6.93,0-12.57,5.64-12.57,12.57v44c0,6.93,5.64,12.57,12.57,12.57H56.57c6.93,0,12.57-5.64,12.57-12.57v-6.29h11.64c7.45,0,13.5-6.05,13.5-13.5V13.5C94.28,6.05,88.23,0,80.78,0h0Z"/><path class="cls-1" d="M478.54,32.26c2.72,0,5.21,.67,7.49,2,2.27,1.34,4.08,3.19,5.43,5.57,1.35,2.38,2.02,4.91,2.02,7.61,0,2.65-.68,5.19-2.04,7.62-1.36,2.43-3.19,4.32-5.48,5.65-2.3,1.34-4.75,2-7.35,2s-5.16-.67-7.54-2c-2.38-1.34-4.2-3.15-5.48-5.45-1.28-2.3-1.92-4.86-1.92-7.69,0-4.36,1.44-8.01,4.32-10.93,2.88-2.92,6.4-4.39,10.55-4.39h0Zm-15.62,2.71c-2.06,3.43-3.29,6.8-3.7,10.11,0,23.78,0,35.64,0,35.6h4.8v-20.97c2.03,2.49,4.31,4.35,6.82,5.57,2.51,1.22,5.27,1.83,8.26,1.83,5.3,0,9.83-1.93,13.6-5.79,3.77-3.86,5.65-8.54,5.65-14.05,0-5.41-1.9-10.04-5.69-13.88s-8.36-5.76-13.71-5.76c-3.06,0-5.93,.59-8.62,1.76-2.68,1.18-5.16,3.03-7.42,5.57h0Zm-32.52-2.71c2.72,0,5.21,.67,7.49,2,2.27,1.34,4.08,3.19,5.43,5.57,1.35,2.38,2.02,4.91,2.02,7.61,0,2.65-.68,5.19-2.04,7.62-1.36,2.43-3.19,4.32-5.48,5.65-2.3,1.34-4.75,2-7.35,2s-5.16-.67-7.54-2c-2.38-1.34-4.2-3.15-5.48-5.45-1.28-2.3-1.92-4.86-1.92-7.69,0-4.36,1.44-8.01,4.32-10.93,2.88-2.92,6.4-4.39,10.55-4.39h0Zm-15.62,2.71c-2.06,3.43-3.29,6.8-3.7,10.11,0,23.78,0,35.64,0,35.6h4.8v-20.97c2.03,2.49,4.31,4.35,6.82,5.57,2.51,1.22,5.26,1.83,8.26,1.83,5.3,0,9.83-1.93,13.6-5.79,3.77-3.86,5.65-8.54,5.65-14.05,0-5.41-1.9-10.04-5.69-13.88-3.79-3.84-8.36-5.76-13.71-5.76-3.06,0-5.93,.59-8.62,1.76-2.68,1.18-5.16,3.03-7.42,5.57h0Zm-34.4-8.29l-8.77,18.43h17.41l-8.63-18.43Zm.62-10.76l23.68,50.81h-5.41l-7.98-16.75h-21.93l-7.91,16.75h-5.69l24.02-50.81h1.23Zm-51.39-1.09h4.87v52.11h-4.87V14.82Zm-13.53,28.64c-.64-2.58-1.58-4.64-2.81-6.18s-2.87-2.79-4.9-3.73c-2.03-.95-4.17-1.42-6.41-1.42-3.68,0-6.84,1.19-9.49,3.56-1.92,1.74-3.37,4.33-4.35,7.78h27.96Zm0,10.11l4.04,2.16c-1.3,2.63-2.83,4.74-4.59,6.34-1.76,1.6-3.73,2.82-5.93,3.65-2.19,.83-4.67,1.25-7.43,1.25-6.12,0-10.91-2-14.36-6.01s-5.17-8.54-5.17-13.59c0-4.77,1.46-9.02,4.39-12.75,3.7-4.75,8.67-7.13,14.9-7.13s11.48,2.43,15.32,7.3c2.72,3.43,4.09,7.7,4.11,12.81h-33.75c.09,4.39,1.48,7.98,4.18,10.78s6.02,4.2,9.97,4.2c1.92,0,3.78-.34,5.58-1.01s3.34-1.56,4.61-2.66c1.27-1.1,2.64-2.88,4.13-5.34h0Zm-74.69-.89l-.07-4.01c-.07-1.96,.01-3.63,.24-5,.5-4.32,1.6-7.48,3.29-9.49,1.64-1.76,3.32-3.12,5.04-4.08,2.83-1.21,6.06-1.78,9.7-1.71,2.83,0,5.45,.71,7.86,2.14,2.41,1.43,4.13,3.35,5.16,5.76,1.03,2.41,1.54,6.18,1.54,11.32v19.32h-4.8v-17.92c0-4.34-.18-7.24-.55-8.7-.57-2.49-1.7-4.25-3.39-5.29-1.69-1.04-4.19-1.56-7.5-1.56-2.92,0-5.53,.85-7.81,2.54-2.28,1.69-3.35,4-3.19,6.92-.43,1.87-.65,5.29-.65,10.24v13.77h-4.87v-14.25h0Zm-23.06-2.95v-4.52c.37-2.26,.89-4.1,1.58-5.52,1.6-3.93,3.75-6.81,6.44-8.63s4.93-2.74,6.72-2.74c1.32,0,2.74,.43,4.25,1.3l-2.5,4.04c-2.12-.78-4.23-.15-6.32,1.88s-3.53,4.25-4.33,6.65c-.59,2.12-.89,6.11-.89,11.96v12.71h-4.93v-17.13h0Zm-41.73-21.27h4.87v17.54c0,4.29,.23,7.24,.69,8.84,.69,2.31,2,4.13,3.94,5.46s4.27,2,6.99,2,4.98-.65,6.85-1.95c1.87-1.3,3.16-3.02,3.87-5.14,.5-1.44,.75-4.51,.75-9.22V28.45h4.93v18.47c0,5.19-.61,9.09-1.83,11.7-1.22,2.62-3.04,4.66-5.46,6.13-2.42,1.47-5.46,2.21-9.11,2.21s-6.74-.74-9.18-2.21c-2.44-1.47-4.27-3.54-5.48-6.2-1.21-2.66-1.82-6.66-1.82-12.01V28.45h0Zm-30.73-1.78l-8.77,18.43h17.41l-8.63-18.43Zm.62-10.76l23.68,50.81h-5.41l-7.98-16.75h-21.93l-7.91,16.75h-5.69l24.02-50.81h1.23Z"/></g></svg>