<?xml version="1.0" encoding="UTF-8"?><svg id="Capa_2" xmlns="http://www.w3.org/2000/svg" viewBox="0 0 501.35 96.28"><defs><style>.cls-1{fill:#fff;}</style></defs><g id="Capa_1-2"><path class="cls-1" d="M48.14,52.29c-2.06,0-4.14-1.42-4.14-4.14s2.08-4.14,4.14-4.14,4.14,1.42,4.14,4.14-2.08,4.14-4.14,4.14Z"/><path class="cls-1" d="M45,48.14c0,4.19,6.29,4.19,6.29,0s-6.29-4.19-6.29,0Z"/><path class="cls-1" d="M13.57,96.28c-7.48,0-13.57-6.09-13.57-13.57V38.71c0-7.48,6.09-13.57,13.57-13.57h5.29V14.5c0-7.99,6.5-14.5,14.5-14.5h48.43c8,0,14.5,6.5,14.5,14.5V62.93c0,7.99-6.5,14.5-14.5,14.5h-10.64v5.29c0,7.48-6.09,13.57-13.57,13.57H13.57Zm43.98-8.29c2.91,0,5.29-2.37,5.29-5.29V38.71c0-2.91-2.37-5.29-5.29-5.29H13.55c-2.91,0-5.29,2.37-5.29,5.29v11.94l2.35-.23c1.09-.1,2.05-.15,2.94-.15,17.88,0,32.43,14.55,32.43,32.43,0,.88-.05,1.84-.15,2.93l-.21,2.35h11.93Zm-49.25-5.29c0,2.91,2.37,5.29,5.29,5.29h23.6l.35-2.37h0c.12-.98,.19-1.96,.19-2.92,0-13.31-10.83-24.14-24.14-24.14-1.1,0-2.27,.09-3.47,.26l-1.81,.28v23.61Zm73.49-13.57c3.42,0,6.21-2.79,6.21-6.21V14.5c0-3.43-2.79-6.21-6.21-6.21H33.35c-3.42,0-6.21,2.79-6.21,6.21v10.64h30.43c7.48,0,13.57,6.09,13.57,13.57v30.43h10.64Z"/><path class="cls-1" d="M81.78,1H33.35c-7.45,0-13.5,6.05-13.5,13.5v11.64h-6.29c-6.93,0-12.57,5.64-12.57,12.57v44c0,6.93,5.64,12.57,12.57,12.57H57.57c6.93,0,12.57-5.64,12.57-12.57v-6.29h11.64c7.45,0,13.5-6.05,13.5-13.5V14.5c0-7.45-6.05-13.5-13.5-13.5ZM38.45,86.3h-.01l-.39,2.69H13.58c-3.47,0-6.29-2.81-6.29-6.29v-24.47l2.67-.41c1.2-.17,2.41-.27,3.62-.27,13.86,0,25.14,11.28,25.14,25.14,0,1.2-.09,2.41-.27,3.6Zm25.38-3.59c0,3.47-2.81,6.29-6.29,6.29h-13.03l.31-3.44c.09-1.04,.14-1.96,.14-2.84,0-17.33-14.09-31.43-31.43-31.43-.9,0-1.82,.05-2.84,.14l-3.44,.33v-13.04c0-3.47,2.81-6.29,6.29-6.29H57.55c3.47,0,6.29,2.81,6.29,6.29v44Zm17.95-12.57h-11.64v-31.43c0-6.93-5.64-12.57-12.57-12.57H26.14V14.5c0-3.98,3.23-7.21,7.21-7.21h48.43c3.98,0,7.21,3.23,7.21,7.21V62.93c0,3.98-3.23,7.21-7.21,7.21Z"/><path class="cls-1" d="M495.08,32.98c-4.16-4.21-9.25-6.35-15.13-6.35-3.32,0-6.49,.65-9.42,1.93-2.94,1.29-5.66,3.33-8.11,6.07l-.12,.14-.1,.16c-2.19,3.65-3.53,7.31-3.97,10.89l-.02,.12v37.72h8.8v-18.13c1.25,1.02,2.57,1.86,3.94,2.53,2.78,1.35,5.85,2.03,9.13,2.03,5.83,0,10.89-2.15,15.03-6.39,4.13-4.23,6.22-9.42,6.22-15.45s-2.11-11.08-6.26-15.28Zm-9.13,27c-2,1.17-4.08,1.73-6.34,1.73s-4.47-.57-6.56-1.75c-2.07-1.16-3.61-2.69-4.72-4.68-1.1-1.98-1.67-4.24-1.67-6.72,0-3.85,1.22-6.97,3.74-9.53,2.51-2.55,5.5-3.79,9.13-3.79,2.38,0,4.49,.57,6.47,1.73,1.98,1.17,3.52,2.75,4.71,4.83,1.19,2.09,1.76,4.25,1.76,6.62,0,2.29-.6,4.53-1.78,6.65-1.19,2.13-2.74,3.74-4.74,4.9Z"/><path class="cls-1" d="M431.82,26.63c-3.32,0-6.49,.65-9.42,1.93-2.94,1.29-5.66,3.33-8.11,6.07l-.12,.14-.1,.16c-2.19,3.65-3.53,7.31-3.97,10.89l-.02,.12v37.72h8.8v-18.13c1.25,1.01,2.56,1.86,3.94,2.53,2.78,1.35,5.85,2.03,9.13,2.03,5.83,0,10.89-2.15,15.03-6.39,4.13-4.23,6.22-9.42,6.22-15.45s-2.11-11.08-6.26-15.28c-4.16-4.21-9.25-6.35-15.13-6.35Zm6,33.35c-2,1.17-4.08,1.73-6.34,1.73s-4.47-.57-6.56-1.75c-2.07-1.16-3.61-2.69-4.71-4.68-1.11-1.98-1.67-4.24-1.67-6.72,0-3.85,1.22-6.97,3.74-9.53,2.51-2.55,5.5-3.79,9.13-3.79,2.38,0,4.49,.57,6.47,1.73,1.98,1.17,3.52,2.75,4.71,4.83,1.19,2.09,1.76,4.26,1.76,6.62,0,2.29-.6,4.53-1.78,6.65-1.19,2.13-2.74,3.74-4.74,4.9Z"/><path class="cls-1" d="M379.5,14.91l-25.91,54.81h10.11l7.92-16.75h19.4l7.98,16.75h9.82l-25.54-54.81h-3.77Zm-3.72,29.19l5.59-11.75,5.5,11.75h-11.09Z"/><path class="cls-1" d="M324.35,48.6c-.02-5.55-1.55-10.28-4.54-14.04-4.22-5.35-9.9-8.06-16.89-8.06s-12.4,2.66-16.48,7.89c-3.19,4.07-4.81,8.77-4.81,13.98,0,5.52,1.9,10.53,5.66,14.89,3.83,4.45,9.17,6.71,15.87,6.71,2.99,0,5.73-.46,8.15-1.38,2.42-.92,4.62-2.28,6.56-4.04,1.94-1.76,3.63-4.09,5.04-6.93l.86-1.74-7.43-3.97-.98,1.63c-1.37,2.27-2.62,3.91-3.72,4.86-1.08,.94-2.43,1.71-4,2.29-1.57,.59-3.21,.88-4.88,.88-3.42,0-6.21-1.17-8.53-3.58-1.93-2-3.07-4.43-3.47-7.39h33.6v-2.01Zm-15.84-12.24c1.74,.81,3.15,1.88,4.18,3.17,.63,.79,1.18,1.77,1.65,2.93h-22.42c.78-1.82,1.74-3.26,2.87-4.29,2.29-2.05,4.96-3.05,8.16-3.05,1.93,0,3.8,.42,5.56,1.23Z"/><path class="cls-1" d="M269.45,29.8c-2.71-1.61-5.7-2.42-8.84-2.42-.21,0-.41,0-.62,0-3.65,0-6.99,.63-9.9,1.88l-.1,.04-.09,.05c-1.89,1.06-3.74,2.55-5.52,4.46l-.07,.08c-1.97,2.34-3.19,5.79-3.73,10.45-.25,1.5-.34,3.31-.27,5.37l.07,3.97v16.25h8.87v-15.77c0-5.95,.33-8.61,.6-9.79l.06-.28-.02-.28c-.12-2.26,.63-3.91,2.38-5.2,1.95-1.44,4.12-2.14,6.62-2.14,2.92,0,5.09,.42,6.46,1.26,1.22,.75,2.04,2.07,2.5,4.07,.22,.89,.49,3.04,.49,8.22v19.92h8.8v-21.32c0-5.46-.56-9.42-1.7-12.11-1.19-2.8-3.21-5.05-5.98-6.69Z"/><rect class="cls-1" x="328.6" y="13.82" width="8.87" height="56.11"/><path class="cls-1" d="M203.55,47c0,5.84-.4,7.87-.65,8.58-.57,1.72-1.59,3.07-3.12,4.13-1.54,1.07-3.41,1.6-5.71,1.6s-4.24-.54-5.86-1.65c-1.57-1.08-2.6-2.51-3.15-4.37-.28-.97-.61-3.2-.61-8.29V27.45h-8.87v20.09c0,5.69,.65,9.88,2,12.84,1.38,3.02,3.49,5.41,6.27,7.09,2.75,1.66,6.18,2.5,10.21,2.5s7.43-.84,10.15-2.5c2.75-1.68,4.85-4.03,6.24-6.99,1.36-2.91,2.02-7.02,2.02-12.55V27.45h-8.93v19.54Z"/><path class="cls-1" d="M144.97,14.91l-25.91,54.81h10.11l7.92-16.75h19.4l7.98,16.75h9.81l-25.54-54.81h-3.77Zm-3.72,29.19l5.59-11.75,5.5,11.75h-11.09Z"/><path class="cls-1" d="M239.3,28.88c-1.81-1.04-3.57-1.57-5.25-1.57-2.21,0-4.78,1.01-7.84,3.09-3,2.04-5.41,5.22-7.15,9.48-.76,1.6-1.33,3.56-1.72,6.01l-.03,.16v23.81h8.93v-14.71c0-7.02,.44-10.09,.79-11.33,.69-2.08,1.98-4.05,3.83-5.85,1.12-1.09,2.18-1.64,3.17-1.64,.35,0,.7,.07,1.07,.2l1.53,.56,4.44-7.18-1.79-1.03Z"/></g></svg>