<?xml version="1.0" encoding="UTF-8"?><svg id="Capa_2" xmlns="http://www.w3.org/2000/svg" xmlns:xlink="http://www.w3.org/1999/xlink" viewBox="0 0 220.73 220.73"><defs><style>.cls-1{fill:#fff;}.cls-2{fill:url(#Degradado_sin_nombre_14);}</style><linearGradient id="Degradado_sin_nombre_14" x1="0" y1="110.36" x2="220.73" y2="110.36" gradientTransform="matrix(1, 0, 0, 1, 0, 0)" gradientUnits="userSpaceOnUse"><stop offset="0" stop-color="#262254"/><stop offset=".2" stop-color="#252d5e"/><stop offset=".56" stop-color="#254c78"/><stop offset="1" stop-color="#247ba0"/></linearGradient></defs><g id="Capa_1-2"><rect class="cls-2" width="220.73" height="220.73" rx="45.77" ry="45.77" transform="translate(220.73 220.73) rotate(180)"/><path class="cls-1" d="M115.42,110.36c0,6.74-10.11,6.74-10.11,0s10.11-6.74,10.11,0"/><path class="cls-1" d="M171,129.08c0,6.4-5.2,11.6-11.6,11.6h-18.72v-50.54c0-11.14-9.07-20.21-20.21-20.21h-50.54v-18.72c0-6.4,5.2-11.6,11.6-11.6h77.87c6.4,0,11.6,5.2,11.6,11.6v77.88Zm-50.53,41.92h-20.97l.5-5.54c.15-1.67,.23-3.16,.23-4.57,0-27.87-22.66-50.54-50.54-50.54-1.44,0-2.93,.08-4.57,.23l-5.54,.53v-20.97c0-5.59,4.52-10.11,10.11-10.11H120.44c5.59,0,10.11,4.52,10.11,10.11v70.75c0,5.59-4.52,10.11-10.11,10.11h.03Zm-30.76-4.32l-.63,4.32H49.74c-5.59,0-10.11-4.52-10.11-10.11v-39.34l4.29-.66c1.92-.28,3.87-.43,5.81-.43,22.29,0,40.43,18.14,40.43,40.43,0,1.92-.15,3.87-.43,5.78h-.02ZM159.41,29.5H81.53c-11.97,0-21.7,9.73-21.7,21.7v18.72h-10.11c-11.14,0-20.21,9.07-20.21,20.21v70.75c0,11.14,9.07,20.21,20.21,20.21H120.47c11.14,0,20.21-9.07,20.21-20.21v-10.11h18.72c11.97,0,21.7-9.73,21.7-21.7V51.21c0-11.97-9.73-21.7-21.7-21.7h0Z"/></g></svg>